<svg xmlns="http://www.w3.org/2000/svg" xmlns:xlink="http://www.w3.org/1999/xlink" width="646pt" height="276pt" viewBox="0.00 0.00 646.00 276.00">
<g id="graph0" class="graph" transform="scale(1 1) rotate(0) translate(4 272)">
<title>HashFlow</title>
<polygon fill="white" stroke="none" points="-4,4 -4,-272 641.68,-272 641.68,4 -4,4"/>
<!-- alpha1 -->
<g id="node1" class="node">
<title>alpha1</title>
<path fill="#e8e8e8" stroke="black" d="M45.68,-268C45.68,-268 12,-268 12,-268 6,-268 0,-262 0,-256 0,-256 0,-244 0,-244 0,-238 6,-232 12,-232 12,-232 45.68,-232 45.68,-232 51.68,-232 57.68,-238 57.68,-244 57.68,-244 57.68,-256 57.68,-256 57.68,-262 51.68,-268 45.68,-268"/>
<text xml:space="preserve" text-anchor="middle" x="28.84" y="-253" font-family="Arial" font-size="10.00">/alpha</text>
<text xml:space="preserve" text-anchor="middle" x="28.84" y="-241" font-family="Arial" font-size="10.00">запрос 1</text>
</g>
<!-- balancer -->
<g id="node7" class="node">
<title>balancer</title>
<polygon fill="#ffe4b5" stroke="black" points="369.93,-174 267.75,-174 267.75,-170 263.75,-170 263.75,-166 267.75,-166 267.75,-102 263.75,-102 263.75,-98 267.75,-98 267.75,-94 369.93,-94 369.93,-174"/>
<polyline fill="none" stroke="black" points="267.75,-170 271.75,-170 271.75,-166 267.75,-166"/>
<polyline fill="none" stroke="black" points="267.75,-102 271.75,-102 271.75,-98 267.75,-98"/>
<text xml:space="preserve" text-anchor="middle" x="318.84" y="-161" font-family="Arial" font-size="10.00">balancer</text>
<text xml:space="preserve" text-anchor="middle" x="318.84" y="-149" font-family="Arial" font-size="10.00">Nginx</text>
<text xml:space="preserve" text-anchor="middle" x="318.84" y="-137" font-family="Arial" font-size="10.00">hash $request_uri {</text>
<text xml:space="preserve" text-anchor="middle" x="318.84" y="-125" font-family="Arial" font-size="10.00">  server frontend-1;</text>
<text xml:space="preserve" text-anchor="middle" x="318.84" y="-113" font-family="Arial" font-size="10.00">  server frontend-2;</text>
<text xml:space="preserve" text-anchor="middle" x="318.84" y="-101" font-family="Arial" font-size="10.00">}</text>
</g>
<!-- alpha1&#45;&gt;balancer -->
<g id="edge1" class="edge">
<title>alpha1-&gt;balancer</title>
<path fill="none" stroke="black" d="M28.84,-231.68C28.84,-200.87 28.84,-142 28.84,-142 28.84,-142 255.81,-142 255.81,-142"/>
<polygon fill="black" stroke="black" points="255.81,-145.5 265.81,-142 255.81,-138.5 255.81,-145.5"/>
</g>
<!-- alpha2 -->
<g id="node2" class="node">
<title>alpha2</title>
<path fill="#e8e8e8" stroke="black" d="M161.68,-268C161.68,-268 128,-268 128,-268 122,-268 116,-262 116,-256 116,-256 116,-244 116,-244 116,-238 122,-232 128,-232 128,-232 161.68,-232 161.68,-232 167.68,-232 173.68,-238 173.68,-244 173.68,-244 173.68,-256 173.68,-256 173.68,-262 167.68,-268 161.68,-268"/>
<text xml:space="preserve" text-anchor="middle" x="144.84" y="-253" font-family="Arial" font-size="10.00">/alpha</text>
<text xml:space="preserve" text-anchor="middle" x="144.84" y="-241" font-family="Arial" font-size="10.00">запрос 2</text>
</g>
<!-- alpha2&#45;&gt;balancer -->
<g id="edge3" class="edge">
<title>alpha2-&gt;balancer</title>
<path fill="none" stroke="black" d="M144.84,-231.82C144.84,-205.01 144.84,-158 144.84,-158 144.84,-158 256.06,-158 256.06,-158"/>
<polygon fill="black" stroke="black" points="256.06,-161.5 266.06,-158 256.06,-154.5 256.06,-161.5"/>
</g>
<!-- beta1 -->
<g id="node3" class="node">
<title>beta1</title>
<path fill="#e8e8e8" stroke="black" d="M277.68,-268C277.68,-268 244,-268 244,-268 238,-268 232,-262 232,-256 232,-256 232,-244 232,-244 232,-238 238,-232 244,-232 244,-232 277.68,-232 277.68,-232 283.68,-232 289.68,-238 289.68,-244 289.68,-244 289.68,-256 289.68,-256 289.68,-262 283.68,-268 277.68,-268"/>
<text xml:space="preserve" text-anchor="middle" x="260.84" y="-253" font-family="Arial" font-size="10.00">/beta</text>
<text xml:space="preserve" text-anchor="middle" x="260.84" y="-241" font-family="Arial" font-size="10.00">запрос 1</text>
</g>
<!-- beta1&#45;&gt;balancer -->
<g id="edge5" class="edge">
<title>beta1-&gt;balancer</title>
<path fill="none" stroke="black" d="M278.72,-231.62C278.72,-231.62 278.72,-185.91 278.72,-185.91"/>
<polygon fill="black" stroke="black" points="282.22,-185.91 278.72,-175.91 275.22,-185.91 282.22,-185.91"/>
</g>
<!-- beta2 -->
<g id="node4" class="node">
<title>beta2</title>
<path fill="#e8e8e8" stroke="black" d="M393.68,-268C393.68,-268 360,-268 360,-268 354,-268 348,-262 348,-256 348,-256 348,-244 348,-244 348,-238 354,-232 360,-232 360,-232 393.68,-232 393.68,-232 399.68,-232 405.68,-238 405.68,-244 405.68,-244 405.68,-256 405.68,-256 405.68,-262 399.68,-268 393.68,-268"/>
<text xml:space="preserve" text-anchor="middle" x="376.84" y="-253" font-family="Arial" font-size="10.00">/beta</text>
<text xml:space="preserve" text-anchor="middle" x="376.84" y="-241" font-family="Arial" font-size="10.00">запрос 2</text>
</g>
<!-- beta2&#45;&gt;balancer -->
<g id="edge7" class="edge">
<title>beta2-&gt;balancer</title>
<path fill="none" stroke="black" d="M358.96,-231.62C358.96,-231.62 358.96,-185.91 358.96,-185.91"/>
<polygon fill="black" stroke="black" points="362.46,-185.91 358.96,-175.91 355.46,-185.91 362.46,-185.91"/>
</g>
<!-- gamma1 -->
<g id="node5" class="node">
<title>gamma1</title>
<path fill="#e8e8e8" stroke="black" d="M509.68,-268C509.68,-268 476,-268 476,-268 470,-268 464,-262 464,-256 464,-256 464,-244 464,-244 464,-238 470,-232 476,-232 476,-232 509.68,-232 509.68,-232 515.68,-232 521.68,-238 521.68,-244 521.68,-244 521.68,-256 521.68,-256 521.68,-262 515.68,-268 509.68,-268"/>
<text xml:space="preserve" text-anchor="middle" x="492.84" y="-253" font-family="Arial" font-size="10.00">/gamma</text>
<text xml:space="preserve" text-anchor="middle" x="492.84" y="-241" font-family="Arial" font-size="10.00">запрос 1</text>
</g>
<!-- gamma1&#45;&gt;balancer -->
<g id="edge9" class="edge">
<title>gamma1-&gt;balancer</title>
<path fill="none" stroke="black" d="M492.84,-231.59C492.84,-201.96 492.84,-147 492.84,-147 492.84,-147 381.62,-147 381.62,-147"/>
<polygon fill="black" stroke="black" points="381.62,-143.5 371.62,-147 381.62,-150.5 381.62,-143.5"/>
</g>
<!-- gamma2 -->
<g id="node6" class="node">
<title>gamma2</title>
<path fill="#e8e8e8" stroke="black" d="M625.68,-268C625.68,-268 592,-268 592,-268 586,-268 580,-262 580,-256 580,-256 580,-244 580,-244 580,-238 586,-232 592,-232 592,-232 625.68,-232 625.68,-232 631.68,-232 637.68,-238 637.68,-244 637.68,-244 637.68,-256 637.68,-256 637.68,-262 631.68,-268 625.68,-268"/>
<text xml:space="preserve" text-anchor="middle" x="608.84" y="-253" font-family="Arial" font-size="10.00">/gamma</text>
<text xml:space="preserve" text-anchor="middle" x="608.84" y="-241" font-family="Arial" font-size="10.00">запрос 2</text>
</g>
<!-- gamma2&#45;&gt;balancer -->
<g id="edge11" class="edge">
<title>gamma2-&gt;balancer</title>
<path fill="none" stroke="black" d="M608.84,-231.52C608.84,-195.85 608.84,-121 608.84,-121 608.84,-121 381.87,-121 381.87,-121"/>
<polygon fill="black" stroke="black" points="381.87,-117.5 371.87,-121 381.87,-124.5 381.87,-117.5"/>
</g>
<!-- fe1 -->
<g id="node8" class="node">
<title>fe1</title>
<path fill="#b0e0e6" stroke="black" d="M177.02,-36C177.02,-36 76.66,-36 76.66,-36 70.66,-36 64.66,-30 64.66,-24 64.66,-24 64.66,-12 64.66,-12 64.66,-6 70.66,0 76.66,0 76.66,0 177.02,0 177.02,0 183.02,0 189.02,-6 189.02,-12 189.02,-12 189.02,-24 189.02,-24 189.02,-30 183.02,-36 177.02,-36"/>
<text xml:space="preserve" text-anchor="middle" x="126.84" y="-21" font-family="Arial" font-size="10.00">frontend-1</text>
<text xml:space="preserve" text-anchor="middle" x="126.84" y="-9" font-family="Arial" font-size="10.00">/gamma → всегда сюда</text>
</g>
<!-- balancer&#45;&gt;fe1 -->
<g id="edge10" class="edge">
<title>balancer-&gt;fe1</title>
<path fill="none" stroke="black" d="M267.49,-126C227.52,-126 178.79,-126 178.79,-126 178.79,-126 178.79,-47.83 178.79,-47.83"/>
<polygon fill="black" stroke="black" points="182.29,-47.83 178.79,-37.83 175.29,-47.83 182.29,-47.83"/>
</g>
<!-- balancer&#45;&gt;fe1 -->
<g id="edge12" class="edge">
<title>balancer-&gt;fe1</title>
<path fill="none" stroke="black" d="M267.44,-110C229.31,-110 183.91,-110 183.91,-110 183.91,-110 183.91,-47.69 183.91,-47.69"/>
<polygon fill="black" stroke="black" points="187.41,-47.69 183.91,-37.69 180.41,-47.69 187.41,-47.69"/>
</g>
<!-- fe2 -->
<g id="node9" class="node">
<title>fe2</title>
<path fill="#b0e0e6" stroke="black" d="M378.48,-36C378.48,-36 259.2,-36 259.2,-36 253.2,-36 247.2,-30 247.2,-24 247.2,-24 247.2,-12 247.2,-12 247.2,-6 253.2,0 259.2,0 259.2,0 378.48,0 378.48,0 384.48,0 390.48,-6 390.48,-12 390.48,-12 390.48,-24 390.48,-24 390.48,-30 384.48,-36 378.48,-36"/>
<text xml:space="preserve" text-anchor="middle" x="318.84" y="-21" font-family="Arial" font-size="10.00">frontend-2</text>
<text xml:space="preserve" text-anchor="middle" x="318.84" y="-9" font-family="Arial" font-size="10.00">/alpha, /beta → всегда сюда</text>
</g>
<!-- balancer&#45;&gt;fe2 -->
<g id="edge2" class="edge">
<title>balancer-&gt;fe2</title>
<path fill="none" stroke="black" d="M308.62,-93.75C308.62,-93.75 308.62,-47.93 308.62,-47.93"/>
<polygon fill="black" stroke="black" points="312.12,-47.93 308.62,-37.93 305.12,-47.93 312.12,-47.93"/>
</g>
<!-- balancer&#45;&gt;fe2 -->
<g id="edge4" class="edge">
<title>balancer-&gt;fe2</title>
<path fill="none" stroke="black" d="M349.49,-93.75C349.49,-93.75 349.49,-47.93 349.49,-47.93"/>
<polygon fill="black" stroke="black" points="352.99,-47.93 349.49,-37.93 345.99,-47.93 352.99,-47.93"/>
</g>
<!-- balancer&#45;&gt;fe2 -->
<g id="edge6" class="edge">
<title>balancer-&gt;fe2</title>
<path fill="none" stroke="black" d="M288.19,-93.75C288.19,-93.75 288.19,-47.93 288.19,-47.93"/>
<polygon fill="black" stroke="black" points="291.69,-47.93 288.19,-37.93 284.69,-47.93 291.69,-47.93"/>
</g>
<!-- balancer&#45;&gt;fe2 -->
<g id="edge8" class="edge">
<title>balancer-&gt;fe2</title>
<path fill="none" stroke="black" d="M329.06,-93.75C329.06,-93.75 329.06,-47.93 329.06,-47.93"/>
<polygon fill="black" stroke="black" points="332.56,-47.93 329.06,-37.93 325.56,-47.93 332.56,-47.93"/>
</g>
</g>
</svg>