<svg xmlns="http://www.w3.org/2000/svg" xmlns:xlink="http://www.w3.org/1999/xlink" width="542pt" height="276pt" viewBox="0.00 0.00 542.00 276.00">
<g id="graph0" class="graph" transform="scale(1 1) rotate(0) translate(4 272)">
<title>RoundRobinFlow</title>
<polygon fill="white" stroke="none" points="-4,4 -4,-272 537.93,-272 537.93,4 -4,4"/>
<!-- req1 -->
<g id="node1" class="node">
<title>req1</title>
<path fill="#e8e8e8" stroke="black" d="M77.93,-268C77.93,-268 12,-268 12,-268 6,-268 0,-262 0,-256 0,-256 0,-244 0,-244 0,-238 6,-232 12,-232 12,-232 77.93,-232 77.93,-232 83.93,-232 89.93,-238 89.93,-244 89.93,-244 89.93,-256 89.93,-256 89.93,-262 83.93,-268 77.93,-268"/>
<text xml:space="preserve" text-anchor="middle" x="44.96" y="-253" font-family="Arial" font-size="10.00">Запрос 1</text>
<text xml:space="preserve" text-anchor="middle" x="44.96" y="-241" font-family="Arial" font-size="10.00">GET /roundrobin</text>
</g>
<!-- balancer -->
<g id="node5" class="node">
<title>balancer</title>
<polygon fill="#ffe4b5" stroke="black" points="319.16,-174 214.77,-174 214.77,-170 210.77,-170 210.77,-166 214.77,-166 214.77,-102 210.77,-102 210.77,-98 214.77,-98 214.77,-94 319.16,-94 319.16,-174"/>
<polyline fill="none" stroke="black" points="214.77,-170 218.77,-170 218.77,-166 214.77,-166"/>
<polyline fill="none" stroke="black" points="214.77,-102 218.77,-102 218.77,-98 214.77,-98"/>
<text xml:space="preserve" text-anchor="middle" x="266.96" y="-161" font-family="Arial" font-size="10.00">balancer</text>
<text xml:space="preserve" text-anchor="middle" x="266.96" y="-149" font-family="Arial" font-size="10.00">Nginx</text>
<text xml:space="preserve" text-anchor="middle" x="266.96" y="-137" font-family="Arial" font-size="10.00">upstream backend {</text>
<text xml:space="preserve" text-anchor="middle" x="266.96" y="-125" font-family="Arial" font-size="10.00">  server frontend-1;</text>
<text xml:space="preserve" text-anchor="middle" x="266.96" y="-113" font-family="Arial" font-size="10.00">  server frontend-2;</text>
<text xml:space="preserve" text-anchor="middle" x="266.96" y="-101" font-family="Arial" font-size="10.00">}</text>
</g>
<!-- req1&#45;&gt;balancer -->
<g id="edge1" class="edge">
<title>req1-&gt;balancer</title>
<path fill="none" stroke="black" d="M44.96,-231.62C44.96,-198.91 44.96,-134 44.96,-134 44.96,-134 202.84,-134 202.84,-134"/>
<polygon fill="black" stroke="black" points="202.84,-137.5 212.84,-134 202.84,-130.5 202.84,-137.5"/>
</g>
<!-- req2 -->
<g id="node2" class="node">
<title>req2</title>
<path fill="#e8e8e8" stroke="black" d="M225.93,-268C225.93,-268 160,-268 160,-268 154,-268 148,-262 148,-256 148,-256 148,-244 148,-244 148,-238 154,-232 160,-232 160,-232 225.93,-232 225.93,-232 231.93,-232 237.93,-238 237.93,-244 237.93,-244 237.93,-256 237.93,-256 237.93,-262 231.93,-268 225.93,-268"/>
<text xml:space="preserve" text-anchor="middle" x="192.96" y="-253" font-family="Arial" font-size="10.00">Запрос 2</text>
<text xml:space="preserve" text-anchor="middle" x="192.96" y="-241" font-family="Arial" font-size="10.00">GET /roundrobin</text>
</g>
<!-- req2&#45;&gt;balancer -->
<g id="edge3" class="edge">
<title>req2-&gt;balancer</title>
<path fill="none" stroke="black" d="M226.35,-231.62C226.35,-231.62 226.35,-185.91 226.35,-185.91"/>
<polygon fill="black" stroke="black" points="229.85,-185.91 226.35,-175.91 222.85,-185.91 229.85,-185.91"/>
</g>
<!-- req3 -->
<g id="node3" class="node">
<title>req3</title>
<path fill="#e8e8e8" stroke="black" d="M373.93,-268C373.93,-268 308,-268 308,-268 302,-268 296,-262 296,-256 296,-256 296,-244 296,-244 296,-238 302,-232 308,-232 308,-232 373.93,-232 373.93,-232 379.93,-232 385.93,-238 385.93,-244 385.93,-244 385.93,-256 385.93,-256 385.93,-262 379.93,-268 373.93,-268"/>
<text xml:space="preserve" text-anchor="middle" x="340.96" y="-253" font-family="Arial" font-size="10.00">Запрос 3</text>
<text xml:space="preserve" text-anchor="middle" x="340.96" y="-241" font-family="Arial" font-size="10.00">GET /roundrobin</text>
</g>
<!-- req3&#45;&gt;balancer -->
<g id="edge5" class="edge">
<title>req3-&gt;balancer</title>
<path fill="none" stroke="black" d="M307.58,-231.62C307.58,-231.62 307.58,-185.91 307.58,-185.91"/>
<polygon fill="black" stroke="black" points="311.08,-185.91 307.58,-175.91 304.08,-185.91 311.08,-185.91"/>
</g>
<!-- req4 -->
<g id="node4" class="node">
<title>req4</title>
<path fill="#e8e8e8" stroke="black" d="M521.93,-268C521.93,-268 456,-268 456,-268 450,-268 444,-262 444,-256 444,-256 444,-244 444,-244 444,-238 450,-232 456,-232 456,-232 521.93,-232 521.93,-232 527.93,-232 533.93,-238 533.93,-244 533.93,-244 533.93,-256 533.93,-256 533.93,-262 527.93,-268 521.93,-268"/>
<text xml:space="preserve" text-anchor="middle" x="488.96" y="-253" font-family="Arial" font-size="10.00">Запрос 4</text>
<text xml:space="preserve" text-anchor="middle" x="488.96" y="-241" font-family="Arial" font-size="10.00">GET /roundrobin</text>
</g>
<!-- req4&#45;&gt;balancer -->
<g id="edge7" class="edge">
<title>req4-&gt;balancer</title>
<path fill="none" stroke="black" d="M488.96,-231.62C488.96,-198.91 488.96,-134 488.96,-134 488.96,-134 331.09,-134 331.09,-134"/>
<polygon fill="black" stroke="black" points="331.09,-130.5 321.09,-134 331.09,-137.5 331.09,-130.5"/>
</g>
<!-- fe1 -->
<g id="node6" class="node">
<title>fe1</title>
<path fill="#b0e0e6" stroke="black" d="M226.3,-36C226.3,-36 167.62,-36 167.62,-36 161.62,-36 155.62,-30 155.62,-24 155.62,-24 155.62,-12 155.62,-12 155.62,-6 161.62,0 167.62,0 167.62,0 226.3,0 226.3,0 232.3,0 238.3,-6 238.3,-12 238.3,-12 238.3,-24 238.3,-24 238.3,-30 232.3,-36 226.3,-36"/>
<text xml:space="preserve" text-anchor="middle" x="196.96" y="-21" font-family="Arial" font-size="10.00">frontend-1</text>
<text xml:space="preserve" text-anchor="middle" x="196.96" y="-9" font-family="Arial" font-size="10.00">обрабатывает</text>
</g>
<!-- balancer&#45;&gt;fe1 -->
<g id="edge4" class="edge">
<title>balancer-&gt;fe1</title>
<path fill="none" stroke="black" d="M222.61,-93.75C222.61,-93.75 222.61,-47.93 222.61,-47.93"/>
<polygon fill="black" stroke="black" points="226.11,-47.93 222.61,-37.93 219.11,-47.93 226.11,-47.93"/>
</g>
<!-- balancer&#45;&gt;fe1 -->
<g id="edge8" class="edge">
<title>balancer-&gt;fe1</title>
<path fill="none" stroke="black" d="M230.46,-93.75C230.46,-93.75 230.46,-47.93 230.46,-47.93"/>
<polygon fill="black" stroke="black" points="233.96,-47.93 230.46,-37.93 226.96,-47.93 233.96,-47.93"/>
</g>
<!-- fe2 -->
<g id="node7" class="node">
<title>fe2</title>
<path fill="#b0e0e6" stroke="black" d="M367.3,-36C367.3,-36 308.62,-36 308.62,-36 302.62,-36 296.62,-30 296.62,-24 296.62,-24 296.62,-12 296.62,-12 296.62,-6 302.62,0 308.62,0 308.62,0 367.3,0 367.3,0 373.3,0 379.3,-6 379.3,-12 379.3,-12 379.3,-24 379.3,-24 379.3,-30 373.3,-36 367.3,-36"/>
<text xml:space="preserve" text-anchor="middle" x="337.96" y="-21" font-family="Arial" font-size="10.00">frontend-2</text>
<text xml:space="preserve" text-anchor="middle" x="337.96" y="-9" font-family="Arial" font-size="10.00">обрабатывает</text>
</g>
<!-- balancer&#45;&gt;fe2 -->
<g id="edge2" class="edge">
<title>balancer-&gt;fe2</title>
<path fill="none" stroke="black" d="M304.13,-93.75C304.13,-93.75 304.13,-47.93 304.13,-47.93"/>
<polygon fill="black" stroke="black" points="307.63,-47.93 304.13,-37.93 300.63,-47.93 307.63,-47.93"/>
</g>
<!-- balancer&#45;&gt;fe2 -->
<g id="edge6" class="edge">
<title>balancer-&gt;fe2</title>
<path fill="none" stroke="black" d="M311.65,-93.75C311.65,-93.75 311.65,-47.93 311.65,-47.93"/>
<polygon fill="black" stroke="black" points="315.15,-47.93 311.65,-37.93 308.15,-47.93 315.15,-47.93"/>
</g>
</g>
</svg>